<svg xmlns="http://www.w3.org/2000/svg" width="35.056" height="40.026" viewBox="0 0 35.056 40.026">
  <g id="sendbyrd-logo" transform="translate(-272.236 -1424)">
    <path id="Rectangle_2" data-name="Rectangle 2" d="M15,0h3.407a0,0,0,0,1,0,0V22.633a15,15,0,0,1-15,15H0a0,0,0,0,1,0,0V15A15,15,0,0,1,15,0Z" transform="translate(283.567 1424)" fill="#1de9b6"/>
    <path id="Path_1" data-name="Path 1" d="M0,0,5.318,4H0Z" transform="translate(301.974 1429.394)" fill="#013f5e" opacity="0.5"/>
    <path id="Path_2" data-name="Path 2" d="M0,4,5.318,0H0Z" transform="translate(301.974 1433.408)" fill="#002740"/>
    <path id="Path_3" data-name="Path 3" d="M0,2.868,3.312,0H0Z" transform="translate(283.567 1461.158)" fill="#002740"/>
    <circle id="Ellipse_1" data-name="Ellipse 1" cx="1.841" cy="1.841" r="1.841" transform="translate(292.566 1431.363)" fill="#002740"/>
    <path id="Rectangle_3" data-name="Rectangle 3" d="M11.407,0h0a0,0,0,0,1,0,0V11.225A11.407,11.407,0,0,1,0,22.633H0a0,0,0,0,1,0,0V11.407A11.407,11.407,0,0,1,11.407,0Z" transform="translate(288.239 1434.281) rotate(45)" fill="#013f5e" opacity="0.5"/>
  </g>
</svg>
